<?xml version="1.0" standalone="no"?>
<!DOCTYPE svg PUBLIC "-//W3C//DTD SVG 20010904//EN"
 "http://www.w3.org/TR/2001/REC-SVG-20010904/DTD/svg10.dtd">
<svg version="1.0" xmlns="http://www.w3.org/2000/svg"
 width="512.000000pt" height="512.000000pt" viewBox="0 0 512.000000 512.000000"
 preserveAspectRatio="xMidYMid meet">
<metadata>
Created by potrace 1.11, written by Peter Selinger 2001-2013
</metadata>
<g transform="translate(0.000000,512.000000) scale(0.100000,-0.100000)"
fill="#000000" stroke="none">
<path d="M2593 4213 c-150 -19 -335 -79 -464 -150 -370 -204 -644 -591 -774
-1095 -42 -164 -96 -330 -136 -416 -16 -35 -29 -68 -29 -73 0 -6 -5 -7 -12 -3
-6 4 -8 3 -5 -3 19 -31 -165 -304 -293 -433 -46 -46 -190 -165 -281 -232 -151
-111 -199 -158 -199 -195 0 -36 34 -83 61 -83 18 0 19 -8 19 -120 l0 -120 73
58 c103 83 155 117 249 167 127 66 181 58 356 -57 59 -39 109 -73 112 -77 9
-10 63 -41 118 -67 102 -47 154 -31 356 105 176 119 209 135 276 135 69 1 115
-21 278 -132 240 -163 286 -167 470 -45 48 32 92 60 97 62 6 2 22 14 37 26 14
12 61 39 102 59 112 55 157 47 406 -72 239 -114 257 -113 556 30 166 79 213
89 300 63 79 -23 163 -77 369 -237 l22 -17 -1 112 -2 112 34 33 c30 28 34 36
29 68 -7 41 -34 67 -181 177 -112 83 -253 154 -323 163 -57 7 -147 -15 -195
-48 -14 -10 -29 -18 -32 -18 -4 0 -57 -35 -119 -79 -131 -92 -185 -121 -226
-121 -37 0 -113 40 -222 117 -113 81 -201 129 -271 147 -119 31 -212 86 -317
188 -243 238 -384 654 -332 979 37 231 190 411 411 485 57 18 232 26 295 12
87 -18 169 -63 235 -128 96 -95 136 -204 128 -346 -9 -162 -102 -291 -236
-330 -202 -59 -379 40 -396 221 -4 40 10 95 24 95 5 0 11 8 14 18 4 10 24 29
47 41 50 28 76 20 140 -45 36 -36 50 -44 80 -44 79 0 103 90 41 148 -66 61
-84 73 -141 92 -135 45 -249 -8 -338 -157 -30 -51 -36 -109 -21 -183 18 -83
27 -105 68 -165 122 -177 323 -240 532 -166 201 70 336 256 382 525 13 74 14
230 2 286 -3 14 -8 39 -12 55 -3 17 -20 66 -37 110 -101 268 -363 491 -650
555 -123 27 -323 32 -474 13z"/>
<path d="M890 1323 c-24 -9 -50 -46 -50 -73 0 -36 26 -68 63 -78 l32 -8 1
-105 c1 -57 2 -109 3 -115 0 -6 20 -17 44 -24 57 -19 92 -39 231 -132 252
-170 282 -171 529 -2 138 95 207 131 262 140 39 5 55 1 117 -28 40 -19 120
-68 178 -108 246 -171 285 -172 526 -9 167 114 209 136 268 146 47 7 134 -31
234 -102 46 -33 118 -82 160 -109 131 -84 206 -75 367 43 131 97 203 141 259
158 l56 17 0 118 c0 116 0 118 23 118 51 1 83 56 62 107 -22 51 -61 61 -150
37 -37 -10 -180 -86 -195 -104 -22 -25 -214 -141 -246 -148 -52 -12 -86 4
-241 111 -115 79 -204 128 -267 147 -38 12 -121 7 -154 -9 -76 -38 -118 -62
-187 -108 -44 -30 -105 -70 -135 -90 -30 -21 -75 -42 -100 -49 -41 -10 -49 -9
-94 13 -26 13 -78 45 -115 71 -119 84 -165 112 -231 144 -124 60 -222 41 -400
-79 -40 -26 -80 -52 -88 -58 -9 -5 -22 -15 -29 -22 -32 -29 -125 -74 -156 -75
-40 -1 -81 21 -238 128 -110 75 -172 110 -224 126 -40 13 -97 18 -115 11z"/>
</g>
</svg>
